<svg width="9" height="11" viewBox="0 0 9 11" fill="none" xmlns="http://www.w3.org/2000/svg">
<path fill-rule="evenodd" clip-rule="evenodd" d="M4.78753 10.6136L4.78154 10.6146L4.74611 10.6321L4.73613 10.6341L4.72915 10.6321L4.69372 10.6141C4.6884 10.6128 4.6844 10.6138 4.68174 10.6171L4.67975 10.6221L4.67126 10.8356L4.67376 10.8456L4.67875 10.8521L4.73064 10.889L4.73813 10.891L4.74412 10.889L4.79601 10.8521L4.802 10.8441L4.80399 10.8356L4.79551 10.6226C4.79418 10.6173 4.79152 10.6143 4.78753 10.6136ZM4.91926 10.5572L4.91227 10.5582L4.82046 10.6046L4.81547 10.6096L4.81397 10.6151L4.82296 10.8297L4.82545 10.8356L4.82944 10.8396L4.92974 10.8855C4.93606 10.8872 4.94088 10.8859 4.94421 10.8816L4.9462 10.8746L4.92924 10.5682C4.92758 10.5619 4.92425 10.5582 4.91926 10.5572ZM4.56248 10.5582C4.56029 10.5569 4.55766 10.5564 4.55515 10.557C4.55264 10.5576 4.55044 10.5591 4.54901 10.5612L4.54602 10.5682L4.52905 10.8746C4.52939 10.8806 4.53221 10.8845 4.53754 10.8865L4.54502 10.8855L4.64532 10.8391L4.65031 10.8351L4.6518 10.8297L4.66078 10.6151L4.65929 10.6091L4.6543 10.6041L4.56248 10.5582Z" fill="white"/>
<path fill-rule="evenodd" clip-rule="evenodd" d="M5.84195 0.152334C5.9355 0.245908 5.98805 0.372804 5.98805 0.505117C5.98805 0.63743 5.9355 0.764326 5.84195 0.8579L3.69981 3.00004H4.7836L7.63131 0.152334C7.67734 0.104676 7.7324 0.0666624 7.79328 0.0405111C7.85416 0.0143597 7.91964 0.000594578 7.98589 1.88401e-05C8.05215 -0.000556898 8.11785 0.0120683 8.17918 0.0371577C8.2405 0.0622472 8.29621 0.0992984 8.34307 0.14615C8.38992 0.193001 8.42697 0.248713 8.45206 0.310037C8.47715 0.37136 8.48977 0.437067 8.4892 0.503322C8.48862 0.569576 8.47485 0.635053 8.4487 0.695932C8.42255 0.75681 8.38454 0.81187 8.33688 0.8579L6.19474 3.00004H8.45215C8.57374 3.00008 8.69115 3.04452 8.7823 3.125C8.87344 3.20549 8.93206 3.3165 8.94714 3.43716C9.0685 4.40005 8.87467 5.37635 8.39468 6.21985C7.91468 7.06335 7.17435 7.72866 6.28455 8.11614L6.47217 8.86712C6.49051 8.94066 6.49186 9.01741 6.47611 9.09155C6.46036 9.16569 6.42793 9.23527 6.38128 9.29501C6.33463 9.35474 6.27498 9.40307 6.20686 9.43631C6.13874 9.46955 6.06395 9.48684 5.98816 9.48686H2.99424C2.91845 9.48684 2.84365 9.46955 2.77554 9.43631C2.70742 9.40307 2.64777 9.35474 2.60112 9.29501C2.55447 9.23527 2.52203 9.16569 2.50628 9.09155C2.49054 9.01741 2.49188 8.94066 2.51023 8.86712L2.69784 8.11614C1.80805 7.72866 1.06771 7.06335 0.587719 6.21985C0.107723 5.37635 -0.0861059 4.40005 0.035258 3.43716C0.0503363 3.3165 0.108956 3.20549 0.200103 3.125C0.291251 3.04452 0.408652 3.00008 0.530252 3.00004H2.28868L5.13639 0.152334C5.22996 0.058789 5.35686 0.00623822 5.48917 0.00623822C5.62148 0.00623822 5.74838 0.058789 5.84195 0.152334ZM0.9983 3.99802C0.998021 4.74089 1.2346 5.46451 1.67366 6.06375C2.11273 6.66299 2.73141 7.10664 3.43984 7.33024C3.5611 7.36841 3.66322 7.45142 3.72535 7.56233C3.78748 7.67324 3.80494 7.80368 3.77416 7.92703L3.63294 8.48889H5.34846L5.20824 7.92703C5.17746 7.80368 5.19492 7.67324 5.25705 7.56233C5.31918 7.45142 5.4213 7.36841 5.54256 7.33024C6.25099 7.10664 6.86967 6.66299 7.30873 6.06375C7.7478 5.46451 7.98438 4.74089 7.9841 3.99802H0.9983Z" fill="white"/>
</svg>
